<svg xmlns="http://www.w3.org/2000/svg" width="152" height="152" viewBox="0 0 152 152">
  <g id="img21" transform="translate(-1103.059 -7491)">
    <rect id="Rectangle_461168" data-name="Rectangle 461168" width="152" height="152" rx="10" transform="translate(1103.059 7491)" fill="#c2afff"/>
    <g id="XMLID_1031_" transform="translate(1133.25 7521.191)">
      <g id="XMLID_971_" transform="translate(0 0)">
        <g id="XMLID_977_" transform="translate(0 0)">
          <path id="XMLID_1030_" d="M81.842,17.525h2.831a1.788,1.788,0,0,0,0-3.576h-6.8a1.788,1.788,0,0,0-1.788,1.788v6.8a1.788,1.788,0,0,0,3.576,0V20.564A42.233,42.233,0,1,1,45.809,3.576a42.869,42.869,0,0,1,5.152.311,1.788,1.788,0,0,0,.432-3.55A46.459,46.459,0,0,0,45.809,0,45.809,45.809,0,0,0,13.417,78.2,45.808,45.808,0,0,0,81.842,17.525Z" transform="translate(0 0)" fill="#443d59"/>
          <path id="XMLID_1029_" d="M72.92,80.529a1.789,1.789,0,0,0-2.468.554A34.146,34.146,0,1,0,81.141,70.417a1.788,1.788,0,0,0,1.907,3.026,30.582,30.582,0,1,1-5.338,47.513A30.776,30.776,0,0,1,73.475,83,1.789,1.789,0,0,0,72.92,80.529Z" transform="translate(-53.523 -53.524)" fill="#443d59"/>
          <path id="XMLID_1028_" d="M377.957,249.906h2.205a1.788,1.788,0,1,0,0-3.576h-2.205a1.788,1.788,0,0,0,0,3.576Z" transform="translate(-308.901 -202.28)" fill="#443d59"/>
          <path id="XMLID_1004_" d="M103.835,247.794a1.788,1.788,0,0,0,1.788,1.788h2.205a1.788,1.788,0,1,0,0-3.576h-2.205A1.788,1.788,0,0,0,103.835,247.794Z" transform="translate(-85.267 -202.014)" fill="#443d59"/>
          <path id="XMLID_1001_" d="M249.906,107.828v-2.205a1.788,1.788,0,1,0-3.576,0v2.205a1.788,1.788,0,1,0,3.576,0Z" transform="translate(-202.28 -85.267)" fill="#443d59"/>
          <path id="XMLID_1415_" d="M246.006,377.957v2.205a1.788,1.788,0,1,0,3.576,0v-2.205a1.788,1.788,0,0,0-3.576,0Z" transform="translate(-202.014 -308.901)" fill="#443d59"/>
          <path id="XMLID_996_" d="M192.025,161.173A1.788,1.788,0,0,0,189.5,163.7l6.061,6.06a6.16,6.16,0,1,0,10.864,0l12.228-12.228A1.788,1.788,0,0,0,216.12,155l-12.228,12.228a6.147,6.147,0,0,0-5.806,0Zm11.547,11.492a2.584,2.584,0,1,1-2.584-2.584A2.587,2.587,0,0,1,203.572,172.665Z" transform="translate(-155.18 -126.856)" fill="#443d59"/>
          <path id="XMLID_980_" d="M121.231,121.231a1.787,1.787,0,1,0-1.264.524A1.8,1.8,0,0,0,121.231,121.231Z" transform="translate(-97.045 -97.045)" fill="#443d59"/>
          <path id="XMLID_979_" d="M317.226,13.454a1.789,1.789,0,1,0-1.264-.524A1.8,1.8,0,0,0,317.226,13.454Z" transform="translate(-259.03 -8.112)" fill="#443d59"/>
        </g>
      </g>
    </g>
  </g>
</svg>
