<svg xmlns="http://www.w3.org/2000/svg" width="84" height="84" viewBox="0 0 84 84">
  <g id="img56" transform="translate(-1103.059 -7491)">
    <rect id="Rectangle_461168" data-name="Rectangle 461168" width="84" height="84" rx="10" transform="translate(1103.059 7491)" fill="#c2afff"/>
    <g id="Group_1192380" data-name="Group 1192380" transform="translate(1109.962 7504.779)">
      <path id="Path_1037988" data-name="Path 1037988" d="M317.521,220.181l-6.635-5.913a1.479,1.479,0,0,0-2.464,1.1v2.155h-6.1a.827.827,0,1,0,0,1.654h6.931a.827.827,0,0,0,.827-.827v-2.593l6.345,5.654a.739.739,0,0,1,0,1.1l-6.345,5.654v-2.595a.827.827,0,0,0-.827-.827h-9.416a.827.827,0,0,0-.827.827v20.348a.827.827,0,0,0,1.654,0V226.4h7.763v2.157a1.479,1.479,0,0,0,2.463,1.1l6.635-5.913a2.392,2.392,0,0,0,0-3.572Z" transform="translate(-259.168 -190.312)" fill="#443d59"/>
      <path id="Path_1037989" data-name="Path 1037989" d="M40.114,29.408a.827.827,0,0,0-.827-.827H37.053a4.416,4.416,0,0,0-2.785.986V11.435h2.154a1.479,1.479,0,0,0,1.106-2.463L31.615,2.336a2.392,2.392,0,0,0-3.573,0L22.131,8.971a1.478,1.478,0,0,0,1.1,2.464h2.157v2.637a.827.827,0,1,0,1.654,0V10.608a.827.827,0,0,0-.827-.827H23.624l5.653-6.345a.739.739,0,0,1,1.1,0l5.654,6.345H33.441a.827.827,0,0,0-.827.827V18.1a4.416,4.416,0,0,0-2.785-.986h-12.2V14.956a1.479,1.479,0,0,0-2.463-1.1L8.53,19.764a2.392,2.392,0,0,0,0,3.572l6.635,5.913a1.479,1.479,0,0,0,2.463-1.1V25.988h7.763V56.979a.827.827,0,0,0,1.654,0V25.161a.827.827,0,0,0-.827-.827H16.8a.827.827,0,0,0-.827.827v2.595L9.63,22.1a.738.738,0,0,1,0-1.1l6.345-5.654v2.593a.827.827,0,0,0,.827.827H29.83a2.788,2.788,0,0,1,2.785,2.785v35.43a.827.827,0,1,0,1.654,0V33.02a2.788,2.788,0,0,1,2.785-2.785h2.234a.827.827,0,0,0,.827-.827Z" transform="translate(0 -1.366)" fill="#443d59"/>
      <path id="Path_1037990" data-name="Path 1037990" d="M318.241,0H302.4a3.4,3.4,0,0,0-3.391,3.391V22.51a1.6,1.6,0,0,0,1.148,1.541,1.626,1.626,0,0,0,.466.069,1.6,1.6,0,0,0,1.339-.728l2-3.05h14.283a3.4,3.4,0,0,0,3.391-3.391V3.391A3.4,3.4,0,0,0,318.241,0Zm1.738,16.951a1.74,1.74,0,0,1-1.738,1.738H303.512a.827.827,0,0,0-.691.373l-2.162,3.3V3.391A1.74,1.74,0,0,1,302.4,1.654h15.845a1.74,1.74,0,0,1,1.738,1.738V16.951Z" transform="translate(-259.167)" fill="#443d59"/>
      <path id="Path_1037991" data-name="Path 1037991" d="M369.166,28.894a4.409,4.409,0,0,0-3.488,1.525.827.827,0,1,0,1.249,1.084,2.773,2.773,0,1,1,3.262,4.331,3.476,3.476,0,0,0-1.994,3.148.827.827,0,0,0,1.654,0,1.817,1.817,0,0,1,1.037-1.649,4.426,4.426,0,0,0-1.72-8.439Z" transform="translate(-318.31 -25.707)" fill="#443d59"/>
      <circle id="Ellipse_13983" data-name="Ellipse 13983" cx="0.827" cy="0.827" r="0.827" transform="translate(49.987 15.464)" fill="#443d59"/>
    </g>
  </g>
</svg>
