<svg xmlns="http://www.w3.org/2000/svg" width="292" height="183" viewBox="0 0 292 183">
  <g id="img8" transform="translate(-1018 -2178)">
    <rect id="Rectangle_461215" data-name="Rectangle 461215" width="292" height="183" rx="10" transform="translate(1018 2178)" fill="#c2afff"/>
    <g id="_407041801_c2bbbf2b-ca04-403d-9691-a587614663e8" data-name="407041801_c2bbbf2b-ca04-403d-9691-a587614663e8" transform="translate(371.086 1934.381)">
      <path id="Path_1036921" data-name="Path 1036921" d="M3899.55,3129.23c1.846,1.785,7.58,7.019,8.526,9.02l0,.25c-1.559-1.4-4.751-2.467-6.773-2.971l.158-.2A56.759,56.759,0,0,0,3899.55,3129.23Z" transform="translate(-3066.16 -2744.224)" fill="#a2b6e3"/>
      <path id="Path_1036922" data-name="Path 1036922" d="M4147.03,2558.124c.817,0,4.831-.181,5.3.088a7.155,7.155,0,0,1,.055,3.421c-.021.052-.047.1-.071.153a.468.468,0,0,1-.072.053c-.571.3-4.443.088-5.187-.058A7.53,7.53,0,0,0,4147.03,2558.124Z" transform="translate(-3302.503 -2198.76)" fill="#262748"/>
      <path id="Path_1036923" data-name="Path 1036923" d="M4141.02,1757.56q2.763.023,5.528,0a6.938,6.938,0,0,1,.181,3.32,1.249,1.249,0,0,1-.147.377,19.266,19.266,0,0,1-5.49-.114,7.178,7.178,0,0,0,.057-3.356A1.622,1.622,0,0,0,4141.02,1757.56Z" transform="translate(-3296.763 -1434.279)" fill="#fa6350"/>
      <path id="Path_1036924" data-name="Path 1036924" d="M4141.02,2148.9a35.1,35.1,0,0,1,5.558-.038c.438.93.253,3.008.164,4.048a38.551,38.551,0,0,1-5.528.047c.007-.024.016-.047.021-.071A9.2,9.2,0,0,0,4141.02,2148.9Z" transform="translate(-3296.763 -1807.88)" fill="#34355f"/>
      <path id="Path_1036925" data-name="Path 1036925" d="M3148.283,1113a18.2,18.2,0,0,1,2.939,2.9,23.986,23.986,0,0,0,3.279,2.579l-1.686,2.115a25.294,25.294,0,0,0-6.007-2.937C3146.963,1116.612,3147.962,1114.252,3148.283,1113Z" transform="translate(-2347.291 -818.723)" fill="#f48957"/>
      <path id="Path_1036926" data-name="Path 1036926" d="M1658.732,1025.48l5.92,0-.109,4.787h-5.777Q1658.724,1027.875,1658.732,1025.48Z" transform="translate(-926.176 -735.142)" fill="#fa6350"/>
      <path id="Path_1036927" data-name="Path 1036927" d="M3745.819,2716.31h.079a32.58,32.58,0,0,1,.068,3.821l-.007,6.684c-.005,5.709.181,11.478,0,17.18a2.145,2.145,0,0,1-.167.92,8.655,8.655,0,0,0,.174,1.211c.434,1.184,4.611,4.327,4.317,5.8a46.677,46.677,0,0,0-8.329.655l.021-.329c-1.621-2.674-12.112-9.969-15.135-12.12a40.2,40.2,0,0,1,9.522,1.051c2.021.5,5.213,1.57,6.772,2.971.03.011.06.02.088.033a6.577,6.577,0,0,1,2.352,1.932,2.129,2.129,0,0,0,.169-.406c.29-1,.2-17.461.075-19.443a1.29,1.29,0,0,0-.181-.588C3746.172,2724.659,3745.874,2717.876,3745.819,2716.31Z" transform="translate(-2901.224 -2349.885)" fill="#6673b1"/>
      <path id="Path_1036928" data-name="Path 1036928" d="M3264.98,1216.848c.251-.35.438-.694.86-.848a.677.677,0,0,1,.421.106c1.034.678,2,1.555,2.974,2.321l7.093,5.674c2.168,1.743,4.911,3.527,6.8,5.539a1.3,1.3,0,0,1,.315,1.036,5.264,5.264,0,0,1-1.407,3.141,1.13,1.13,0,0,1-.772.358,5.368,5.368,0,0,1-1.458-.479.5.5,0,0,0-.081-.248c-.316-.485-9.3-6.817-10.391-7.473a2.358,2.358,0,0,0-.775-.289c-.228-1.285-5.83-3.9-6.068-5.3a3.008,3.008,0,0,1,.8-1.423Z" transform="translate(-2457.769 -917.088)" fill="#34355f"/>
      <path id="Path_1036929" data-name="Path 1036929" d="M3006.32,1219.442a7.738,7.738,0,0,0,3.219.193c1.519-.4,2.348-1.811,3.1-3.073a25.279,25.279,0,0,1,6.007,2.937,3.01,3.01,0,0,0-.8,1.423c.238,1.4,5.84,4.015,6.068,5.3a2.361,2.361,0,0,1,.775.289c1.094.656,10.075,6.988,10.391,7.473a.5.5,0,0,1,.082.247c-2.534-.184-5.068-.479-7.6-.712a91.227,91.227,0,0,1-10.839-1.367c-.254-.354-.849-3.6-1.152-4.445a18.808,18.808,0,0,0-2.045-3.9c-.27-.42-.506-.67-.394-1.165a17.217,17.217,0,0,0-2.908-.791c-1.09-.27-2.173-.624-3.252-.937a1.3,1.3,0,0,1-.118-.065C3006.539,1220.63,3006.412,1219.806,3006.32,1219.442Z" transform="translate(-2213.124 -917.625)" fill="#262748"/>
      <path id="Path_1036930" data-name="Path 1036930" d="M3006.32,1219.442a7.738,7.738,0,0,0,3.219.193c1.519-.4,2.348-1.811,3.1-3.073a25.279,25.279,0,0,1,6.007,2.937,3.01,3.01,0,0,0-.8,1.423c.238,1.4,5.84,4.015,6.068,5.3a102.581,102.581,0,0,0-10.781-3.577,17.22,17.22,0,0,0-2.908-.791c-1.09-.27-2.173-.624-3.252-.937a1.3,1.3,0,0,1-.118-.065C3006.539,1220.63,3006.412,1219.806,3006.32,1219.442Z" transform="translate(-2213.124 -917.625)" fill="#fff"/>
      <path id="Path_1036931" data-name="Path 1036931" d="M4147.54,2640.68c.744.146,4.616.361,5.188.058a.5.5,0,0,0,.072-.053,4.088,4.088,0,0,1,.07,2.538c-.012.035-.026.069-.041.1a1.886,1.886,0,0,1,.149.714c.067,2.5.176,27.635-.091,28.27a1.112,1.112,0,0,1-.142.264c-1.552-.02-3.718-.289-5.186.116a2.151,2.151,0,0,0,.167-.92c.181-5.7-.005-11.471,0-17.18l.007-6.684a32.576,32.576,0,0,0-.068-3.821A10.692,10.692,0,0,0,4147.54,2640.68Z" transform="translate(-3302.99 -2277.659)" fill="#515381"/>
      <path id="Path_1036932" data-name="Path 1036932" d="M1502,440.345q.192-.011.385-.016a10.763,10.763,0,0,1,7.813,2.88,8.561,8.561,0,0,1,2.686,6.062c0,4.285-2.89,5.973-5.55,8.66-1.538,1.554-1.538,2.834-1.531,4.905h-5.948c.016-1.926-.34-4.291.681-6,1.592-2.154,5.541-4.139,6-6.786a2.98,2.98,0,0,0-.567-2.32,3.91,3.91,0,0,0-2.586-1.481,3.792,3.792,0,0,0-2.819.66,4.608,4.608,0,0,0-1.609,3.352c-2.185-.357-4.387-.622-6.561-1.042a9.545,9.545,0,0,1,2.182-5.264A10.352,10.352,0,0,1,1502,440.345Z" transform="translate(-767.32 -176.318)" fill="#fa6350"/>
      <path id="Path_1036933" data-name="Path 1036933" d="M3979.96,1193.711a9.315,9.315,0,0,1,2.155-5.292,11.218,11.218,0,0,1,15.293-.831,7.379,7.379,0,0,1,3.412,4.712,6.4,6.4,0,0,1-.9,4.985c-1.462,2.237-3.976,3.587-5.495,5.78-.954,1.376-.553,3.1-1.134,4.031l-6.11-.011c.886-1.472-.4-4.427,1.972-7.465,1.1-1.417,5.546-4.363,4.969-6.255a1.293,1.293,0,0,0-.274-.424.593.593,0,0,0,.028-.344,3.331,3.331,0,0,0-1.851-1.727,3.205,3.205,0,0,0-2.586-.136c-1.911.751-2.918,2.956-3.7,4.7A34.946,34.946,0,0,0,3979.96,1193.711Z" transform="translate(-3142.951 -887.455)" fill="#fa6350"/>
      <path id="Path_1036934" data-name="Path 1036934" d="M2159.88,844.269a9.79,9.79,0,0,1,.41-2.32,6.692,6.692,0,0,1,3.451-3.87,7.6,7.6,0,0,1,5.623-.389,7.506,7.506,0,0,1,4.15,4.189,19.118,19.118,0,0,0,2.335-1.977,11.088,11.088,0,0,0,1.694,1.363,9.149,9.149,0,0,0,.279,7.425,13.6,13.6,0,0,0,.877,1.536c-1.782-.051-3.585.049-5.37.047l-14.109-.018c-2.321,0-4.757.138-7.062-.058a1.488,1.488,0,0,1-.924-.295.849.849,0,0,1-.372-.714c.021-.278.385-.573.6-.714a3.116,3.116,0,0,1,2.619-.439,6.3,6.3,0,0,1,.33-1.912,3.732,3.732,0,0,1,2.008-2.075A4.42,4.42,0,0,1,2159.88,844.269Z" transform="translate(-1396.159 -555.451)" fill="#c5d1e7"/>
      <path id="Path_1036935" data-name="Path 1036935" d="M4270.31,2982.583a.9.9,0,0,0,.329-.415c.794-2.2,1.125-4.541,1.984-6.749a39,39,0,0,1,4.857-8.8q.61-.81,1.266-1.584t1.355-1.509q.7-.736,1.436-1.431t1.515-1.347c.833-.71,3.679-2.221,4.053-3.019.149.978-2.782,6.851-3.329,8.168-1.17,2.824-2.373,5.643-3.5,8.483a20.28,20.28,0,0,1-1.392,3.5,2.776,2.776,0,0,1-.241.29l.1-.036c1.5-.58,2.858-1.6,4.352-2.25,5.25-2.284,10.744-2.368,16.34-1.648-.278.325-6.238,2.949-7.314,3.485-3.189,1.591-9.974,5-12.459,7.262A27.437,27.437,0,0,0,4270.31,2982.583Z" transform="translate(-3420.236 -2580.441)" fill="#4258b0"/>
      <path id="Path_1036936" data-name="Path 1036936" d="M3744.683,3347.285c1.468-.405,3.633-.136,5.185-.116.893,1.348-.436,6.234.32,7.228a27.445,27.445,0,0,1,9.344,2.405c1.807.524,7.216,3.345,8.189,5.033a1.808,1.808,0,0,1,.891,1.126q-21.466-.12-42.933.021l2.128-1.829a33.237,33.237,0,0,1,9.331-4.979c1.2-.431,2.564-.675,3.707-1.218a46.672,46.672,0,0,1,8.328-.655c.294-1.478-3.883-4.621-4.317-5.8A8.734,8.734,0,0,1,3744.683,3347.285Z" transform="translate(-2900.114 -2952.255)" fill="#34355f"/>
      <path id="Path_1036937" data-name="Path 1036937" d="M955.043,2578.39a9.41,9.41,0,0,1,4.11.885,7.835,7.835,0,0,1,3.944,4.336,6.2,6.2,0,0,1-.294,4.762q2.5,4.3,4.692,8.758a31.482,31.482,0,0,1,1.853-3.711q-.141-.353-.26-.714a6.3,6.3,0,0,1,.367-4.89c1.189-2.241,3.355-3.367,5.682-4.077a15.564,15.564,0,0,1,.525,2.155,6.546,6.546,0,0,1-1.225,5.1,7.392,7.392,0,0,1-4.59,2.764c-.716,1.331-1.333,2.7-1.95,4.077,1,2.017,1.883,4.091,2.877,6.113.537,1.214.908,2.5,1.42,3.732a16.706,16.706,0,0,0,1.263-1.886c-.084-.691-.1-1.4-.136-2.09a7.069,7.069,0,0,1,1.468-3.434,8.67,8.67,0,0,1,5.961-3.124c.151,2.68.273,5.286-1.644,7.429a5.841,5.841,0,0,1-4.435,1.973c-.331.015-.7-.051-.95.207a17.113,17.113,0,0,0-1.2,1.537c1.515,4.141,2.889,8.365,3,12.814l-.5.094q-.215-1.679-.533-3.341t-.737-3.3q-.419-1.64-.938-3.25t-1.136-3.187c-1.283-.142-2.566-.46-3.831-.72a5.608,5.608,0,0,1-1.03,1.3,5.294,5.294,0,0,1-3.91,1.329c-2.7-.11-4.638-1.625-6.4-3.51a8.52,8.52,0,0,1,5.9-2.6,6.611,6.611,0,0,1,4.608,1.942,10.08,10.08,0,0,1,.718.943c1.142.235,2.281.417,3.437.574.19-.955-3.487-8.483-4.207-9.785a36.517,36.517,0,0,1-3.911-.981,9.637,9.637,0,0,1-1.41.993q-.139.077-.282.146t-.289.132q-.146.062-.295.118t-.3.1q-.151.048-.3.088t-.309.074q-.155.033-.312.059t-.314.043q-.158.018-.316.028t-.317.013q-.159,0-.318,0t-.317-.018q-.158-.013-.316-.033t-.314-.048q-.156-.028-.311-.064t-.308-.079c-2.326-.664-4.085-2.807-5.232-4.845,2.161-.815,4.377-1.559,6.715-1.087a7.6,7.6,0,0,1,4.825,3.654c1.2.31,2.388.677,3.579,1.02a29.032,29.032,0,0,0-1.684-3.24l-2.775-5.124a11.585,11.585,0,0,1-4.389-2.43C955.524,2583.941,955.091,2581.366,955.043,2578.39Z" transform="translate(-250.753 -2218.172)" fill="#a2b6e3"/>
      <path id="Path_1036938" data-name="Path 1036938" d="M3020.941,2576.19c-.085,3.264-.438,6.539-.729,9.79-.689,7.688-1.616,15.412-2.055,23.115-.133,1.184-.317,6.212-.763,6.841l-.275.093a41.347,41.347,0,0,1-4.76.149l-.376-.106c-.4-.609-.539-7.459-.6-8.527-.357-6.681-.69-13.369-1.136-20.045-.116-1.733-.794-6.231-.55-7.64a14.706,14.706,0,0,0,2.579-.72A82.385,82.385,0,0,0,3020.941,2576.19Z" transform="translate(-2216.303 -2216.071)" fill="#34355f"/>
      <path id="Path_1036939" data-name="Path 1036939" d="M2689.05,737.227a5.446,5.446,0,0,1-.6-4.269q.031-.106.069-.211t.079-.207c.028-.068.058-.136.09-.2s.065-.133.1-.2.072-.129.11-.193.078-.126.119-.187.084-.122.128-.181.09-.117.137-.174.1-.112.146-.167.1-.107.155-.159.107-.1.162-.151.112-.1.17-.143.117-.091.177-.134.121-.085.183-.125.125-.078.189-.115.129-.072.2-.106a4.747,4.747,0,0,1,3.566-.265,5.2,5.2,0,0,1,2.95,2.975c3.553-.62,7.331-.472,10.376,1.7a8.306,8.306,0,0,1,3.471,5.472,8.761,8.761,0,0,1-.516,4.426,7.18,7.18,0,0,0-.154,2.441c-.322,1.252-1.32,3.612-1.475,4.66-.755,1.262-1.584,2.67-3.1,3.073a7.738,7.738,0,0,1-3.219-.192c-2.132-.57-2.69-1.4-4.437-2.454l-.082-.048-.158-.044a11.406,11.406,0,0,1-5.978-4.5,13.568,13.568,0,0,1-.877-1.536,9.149,9.149,0,0,1-.279-7.425A11.073,11.073,0,0,1,2689.05,737.227Z" transform="translate(-1909.359 -452.777)" fill="#262748"/>
      <path id="Path_1036940" data-name="Path 1036940" d="M2819.821,902.552c1.061-.719,2.3-1.223,3.417-1.855a15.572,15.572,0,0,0,6.6-7.584,13.3,13.3,0,0,1,3.943,7.454,7.193,7.193,0,0,0-.154,2.441c-.321,1.252-1.32,3.612-1.475,4.66-.755,1.261-1.584,2.669-3.1,3.073a7.74,7.74,0,0,1-3.219-.193c-2.132-.57-2.69-1.4-4.437-2.454l-.082-.048-.158-.044c-.544-.893-1.053-1.788-1.526-2.722a3.118,3.118,0,0,1-1.312-.374,2.19,2.19,0,0,1-.96-1.39,1.492,1.492,0,0,1,.259-1.2c.022-.028.046-.055.071-.08s.052-.05.08-.072.056-.044.086-.064.061-.038.092-.055.064-.032.1-.045a1.019,1.019,0,0,1,.1-.035,1.064,1.064,0,0,1,.1-.025,1.04,1.04,0,0,1,.106-.014A2.1,2.1,0,0,1,2819.821,902.552Z" transform="translate(-2032.631 -608.732)" fill="#fbab45"/>
      <path id="Path_1036941" data-name="Path 1036941" d="M4149.733,2191.4c1.167.494,13.771,8.929,13.994,9.432-.227.316-12.786,8.868-13.989,9.448a2.838,2.838,0,0,0,.058-2.127c-.016-.032-.037-.061-.055-.091l-.114-.113c-2.146-.226-4.477-.022-6.649-.028-2.426-.006-9.385-.317-11.4.128-.468-.269-4.48-.091-5.3-.088a3.008,3.008,0,0,1-.775-1.026,120.18,120.18,0,0,1-.086-12.192c.1-.4.564-.618.745-.971a.882.882,0,0,0,.039-.1,38.585,38.585,0,0,0,5.528-.047l.127.017a62.222,62.222,0,0,0,6.672.132l11.23.009a3.048,3.048,0,0,0,.1-2.15A1.945,1.945,0,0,0,4149.733,2191.4Z" transform="translate(-3281.751 -1848.596)" fill="#fa6350"/>
      <path id="Path_1036942" data-name="Path 1036942" d="M1640.154,1498.606c1.079.352,16.477.114,18.941.1.325-.291.135-.813.511-.9a45.31,45.31,0,0,1,4.11,3.227,62.2,62.2,0,0,1,4.788,4c-1.737,1.856-3.979,3.816-4.96,6.2-.7.6-3.438,3.237-4.175,3.223-.029-.254-.067-.5-.12-.75-1.031-.321-3.289-.057-4.47-.058-4.84,0-9.773.177-14.6-.061l-.028,3.9-5.4-.054c.011-1.3-.05-2.606-.1-3.908a2.151,2.151,0,0,1-1.149-.165c-.207-2.209-.018-4.594-.014-6.82,0-2.5-.159-5.054.016-7.538a2.179,2.179,0,0,1,1.116-.2c1.551-.1,4.087.237,5.441-.185Z" transform="translate(-901.986 -1186.212)" fill="#fbab45"/>
      <path id="Path_1036943" data-name="Path 1036943" d="M1661.09,1846.97c1.833.022,3.7-.031,5.527.06l-.028,3.9-5.4-.054C1661.2,1849.575,1661.139,1848.272,1661.09,1846.97Z" transform="translate(-928.429 -1519.665)" fill="#515381"/>
      <path id="Path_1036944" data-name="Path 1036944" d="M941.592,1086.69c.047.7.068,1.411.1,2.117l19.851-.081h5.777l.894.061c.191.292.07,12.476-.039,13.386a1.3,1.3,0,0,1-.871.268c-.5.691-.209,2.684-.185,3.549h-.1c-1.354.422-3.891.083-5.441.185.028-1.234.018-2.47.026-3.7-2.387.138-4.85-.019-7.243-.028l-12.752.042.008,2.307c-4.172-3.343-8.754-6.2-12.966-9.507C932.842,1092.31,937.218,1089.381,941.592,1086.69Z" transform="translate(-228.953 -793.597)" fill="#515381"/>
      <path id="Path_1036945" data-name="Path 1036945" d="M3393.985,1788.4a5.806,5.806,0,0,1,.146,2.455c2.554,0,20.191.247,21.033-.085l.053-.173a19.264,19.264,0,0,0,5.49.114,2.119,2.119,0,0,1,1.315.98c.353.7.306,10.846.009,11.766a1.743,1.743,0,0,1-.932,1.08,2.3,2.3,0,0,1-.4.175,35.082,35.082,0,0,0-5.558.038c-1.318-.357-10.225-.177-11.957-.062-2.958-.225-6.077-.079-9.048-.084l0,1.951c-1.09-.656-2.115-1.429-3.149-2.17-3.313-2.354-6.76-4.5-10.047-6.893,3.725-2.8,7.98-5.017,11.575-8A12.253,12.253,0,0,0,3393.985,1788.4Z" transform="translate(-2570.889 -1463.731)" fill="#fbab45"/>
      <path id="Path_1036946" data-name="Path 1036946" d="M899.746,1885.978q6.984-4.816,14.094-9.442l.036,2.511c2.109-.083,4.238-.014,6.35-.015q6.94-.022,13.879.082l5.4.054.758.065c.214.347.164,12.347.112,13.739l-.138.192c-.267.025-.536.055-.8.073l-5.432.031q-10.092-.058-20.184-.01l.006,2.563C909.224,1892.456,904.108,1889.655,899.746,1885.978Z" transform="translate(-201.345 -1547.901)" fill="#fbab45"/>
      <path id="Path_1036947" data-name="Path 1036947" d="M3337.325,255.722a12.468,12.468,0,0,1,5.027.718,12.071,12.071,0,0,1,7.012,6.242c.371.8,1.123,2.286.805,3.156,2.939-1.409,6.038-2.173,9.265-1.243a12.623,12.623,0,0,1,7.316,5.963c.844,1.538,1.71,4.121,1.192,5.9a6.327,6.327,0,0,1,4.681.917,3.373,3.373,0,0,1,1.489,2.176,1.664,1.664,0,0,1-.431,1.348,2.823,2.823,0,0,1-1.691.735,73.936,73.936,0,0,1-7.819.065q-9.269.045-18.539-.019-3.463.016-6.926-.037a4.483,4.483,0,0,1-.87-.57,1.7,1.7,0,0,1-.639-1.123,1.351,1.351,0,0,1,.449-.918,1.877,1.877,0,0,1,1.65-.745.653.653,0,0,0-.016-.621,2.8,2.8,0,0,0-1.7-1.368,30.518,30.518,0,0,0-5.6-.1l-12.293-.072c-2.2,0-4.485.152-6.675.013a3.711,3.711,0,0,1-1.347-.3,1.538,1.538,0,0,1-.871-.887,1.34,1.34,0,0,1,.133-1.051,2.207,2.207,0,0,1,1.3-.987,3.935,3.935,0,0,1,2.934.332l.134.071a7.681,7.681,0,0,1,2.044-5.168,6.558,6.558,0,0,1,4.561-2.022,5.194,5.194,0,0,1,3.5,1.309c.619-2.84,1.294-5.23,3.278-7.489A12.248,12.248,0,0,1,3337.325,255.722Z" transform="translate(-2503.843)" fill="#c5d1e7"/>
      <path id="Path_1036948" data-name="Path 1036948" d="M2330.344,1224.96l.082.048c1.746,1.056,2.3,1.884,4.437,2.454.093.364.219,1.188.537,1.411a1.261,1.261,0,0,0,.118.065c1.08.313,2.162.667,3.252.937a17.229,17.229,0,0,1,2.908.791c-.112.495.124.745.394,1.165a18.8,18.8,0,0,1,2.045,3.9c.3.844.9,4.09,1.152,4.445-.372.99.071,2.776-.066,3.91-.334,2.771-1.407,6.266-1.34,8.951a21.235,21.235,0,0,0,1.008,5.146c1.17,3.736,2.9,7.361,4.332,11.008l-2.632.606.129,2.265c.284,4.1.476,8.189.689,12.293-.016.252.037.523-.177.694a2.021,2.021,0,0,1-.581.246.672.672,0,0,0-.264.129l-.061.343a82.364,82.364,0,0,1-8.661,2.948,14.715,14.715,0,0,1-2.579.721l-.214-.481a14.387,14.387,0,0,0-.2-2.016l-.824.011-.1,1.171a32.893,32.893,0,0,1-12.7-2.028l-.04-.97-1.046-.515a99.46,99.46,0,0,1,.4-13.673l.143-1.043c-.5-.073-1.01-.215-1.506-.327.6-1.169,1.182-2.348,1.848-3.479a10.23,10.23,0,0,0-1.528-1.184l-.781,1.1q-4.364-4.023-8.833-7.929c-1.88-1.654-3.891-3.271-5.631-5.069a2.636,2.636,0,0,1-.819-2.345c.981-2.379,3.224-4.339,4.96-6.2,3.571-3.422,7.981-9.211,12.046-11.717a44.539,44.539,0,0,1,5.643-2.594,3.763,3.763,0,0,1,1.9-.722c.039,0,.078.01.118.013a2.075,2.075,0,0,0,1.573-.5,4.075,4.075,0,0,0,.938-2.773Z" transform="translate(-1541.667 -925.645)" fill="#34355f"/>
      <path id="Path_1036949" data-name="Path 1036949" d="M2697.86,2561.84a58.787,58.787,0,0,0,7.492,1.582c1.742.17,3.648-.053,5.351.246l-.1,1.171a32.893,32.893,0,0,1-12.7-2.028Z" transform="translate(-1918.545 -2202.366)" fill="#262748"/>
      <path id="Path_1036950" data-name="Path 1036950" d="M3001.58,2570.073a46.4,46.4,0,0,0,7.946-.706c1.25-.232,2.508-.685,3.77-.809l-.061.343a82.345,82.345,0,0,1-8.661,2.948,14.686,14.686,0,0,1-2.579.721l-.214-.481A14.391,14.391,0,0,0,3001.58,2570.073Z" transform="translate(-2208.598 -2208.783)" fill="#262748"/>
      <path id="Path_1036951" data-name="Path 1036951" d="M2656.684,2032.219c2.414.185,5.851.655,7.84-1.036,2.225-1.891,2.658-5.742,4.025-8.247-.449,3.4-.723,6.874-1.388,10.237a72.284,72.284,0,0,1-8.845-.555c-1.221-.16-2.475-.582-3.686-.662-.5-.073-1.01-.215-1.506-.327.6-1.169,1.182-2.348,1.848-3.479a4.308,4.308,0,0,0,2.584.5C2657.868,2029.469,2656.979,2031.375,2656.684,2032.219Z" transform="translate(-1875.822 -1687.712)" fill="#262748"/>
      <path id="Path_1036952" data-name="Path 1036952" d="M2663.7,2041.97c.839,0,1.666.014,2.5.084l.091.017c1.156.2,3.283-.14,4.113.712l.048.262a1.046,1.046,0,0,1-.8.392c-1.192.077-2.4-.162-3.606-.1a17.207,17.207,0,0,1,4.807,1.3l.019.165c-1.026.352-4-.172-4.089-.044.92.31,2.506.465,3.242,1.046l.145.3a1.035,1.035,0,0,1-.783.571c-1.6.4-3.453-.208-5.044.152a4.308,4.308,0,0,1-2.584-.5,10.222,10.222,0,0,0-1.528-1.184,9.793,9.793,0,0,1,1.794-2.767,1.442,1.442,0,0,0,.444.126A1.69,1.69,0,0,0,2663.7,2041.97Z" transform="translate(-1882.613 -1705.89)" fill="#f48957"/>
      <path id="Path_1036953" data-name="Path 1036953" d="M2714.17,1583.062a4.688,4.688,0,0,1,1.2-1.182c1.018,3.6,4.055,10.223,4.17,13.517a16.181,16.181,0,0,1-.586,4.044,13.191,13.191,0,0,1-.865,3.051,1.935,1.935,0,0,1-.38.176c-.837-.071-1.664-.083-2.5-.084C2718.016,1593.263,2717.282,1592.114,2714.17,1583.062Z" transform="translate(-1934.121 -1266.504)" fill="#262748"/>
      <path id="Path_1036954" data-name="Path 1036954" d="M3020.87,1313.37c1.079.313,2.162.667,3.252.937-.305,1.261,1.534,3.986,2.239,5.141q.28.458.583.9c-.506.715-1.032,1.422-1.516,2.152a12.349,12.349,0,0,0,2.244,2.888c-.367,4.113-1.185,8.14-1.731,12.226-.932-6.966-1.621-16.163-4.283-22.572A9.146,9.146,0,0,0,3020.87,1313.37Z" transform="translate(-2227.02 -1010.077)" fill="#6673b1"/>
      <path id="Path_1036955" data-name="Path 1036955" d="M2806.57,1324.844a3.762,3.762,0,0,1,1.9-.722,8.007,8.007,0,0,0,.857,2.353c1.106,3.528,2.009,7.087,2.981,10.651.831,3.044,2.525,8.57,2.6,11.572a43.239,43.239,0,0,1-2.616-4.456c-1.138-1.98-2.363-3.9-3.584-5.834.257-1.234.648-2.462.981-3.678a21.444,21.444,0,0,0-2.435-1.606C2807.023,1330.429,2807.053,1327.493,2806.57,1324.844Z" transform="translate(-2022.363 -1020.34)" fill="#6673b1"/>
      <path id="Path_1036957" data-name="Path 1036957" d="M2851.383,1224.96l.082.048c1.746,1.056,2.3,1.884,4.437,2.454.093.364.219,1.188.537,1.411a1.326,1.326,0,0,0,.118.065,9.1,9.1,0,0,1,.788,1.672c2.663,6.41,3.351,15.606,4.283,22.572.428,2.173.763,4.37,1.309,6.516-2.738,1.616-4.412,2.342-7.642,1.848.317-1.742.6-5.876-.04-7.544-.078-3-1.772-8.528-2.6-11.572-.972-3.564-1.875-7.123-2.981-10.651a8.028,8.028,0,0,1-.857-2.353l.118.013a2.074,2.074,0,0,0,1.573-.5,4.074,4.074,0,0,0,.938-2.773Z" transform="translate(-2062.706 -925.645)" fill="#fff"/>
      <path id="Path_1036958" data-name="Path 1036958" d="M2851.383,1224.96l.082.048c1.746,1.056,2.3,1.884,4.437,2.454.092.364.219,1.188.536,1.411a1.235,1.235,0,0,0,.118.065,9.137,9.137,0,0,1,.788,1.672l-.353,1.1c-.473,1.245-1.017,2.452-1.57,3.663-1.921-1.183-3.8-2.46-5.75-3.6a8.007,8.007,0,0,1-.857-2.353l.118.013a2.075,2.075,0,0,0,1.573-.5,4.074,4.074,0,0,0,.938-2.773Z" transform="translate(-2062.706 -925.645)" fill="#fbab45"/>
      <path id="Path_1036959" data-name="Path 1036959" d="M2905.9,1224.96l.082.048c1.746,1.056,2.3,1.884,4.437,2.454.092.364.219,1.188.536,1.411a1.235,1.235,0,0,0,.118.065,9.153,9.153,0,0,1,.788,1.672l-.353,1.1c-.815-.608-1.658-1.187-2.458-1.814-1.1-.863-2.927-2.316-3.091-3.73Z" transform="translate(-2117.223 -925.645)" fill="#fa6350"/>
      <path id="Path_1036960" data-name="Path 1036960" d="M779.355,2583.4a32.888,32.888,0,0,0,12.7,2.028l.1-1.171.824-.011a14.355,14.355,0,0,1,.2,2.016l.214.481c-.244,1.408.435,5.907.55,7.64.446,6.676.779,13.364,1.136,20.045.057,1.068.2,7.919.6,8.527l.376.106a41.348,41.348,0,0,0,4.76-.149,11.4,11.4,0,0,0-.254,3.738c1.213,1.855,2.219,3.876,4.156,5.093.829-.028,1.638-.021,2.466.026a67.341,67.341,0,0,0,6.984.079l13.525.006-2.128,1.829q21.467-.141,42.933-.021a1.807,1.807,0,0,0-.891-1.126c3.609-.049,27.977.626,29.235,1.8a.651.651,0,0,1,.07.089c-.712.8-7.244,1.1-8.687,1.184q-49.717,2.337-99.487,1.772-40.9.134-81.766-1.467c-3.386-.155-15.727-.292-18.048-1.461l-.012-.176c1.837-1.171,18.671-1.455,22.033-1.632l1.8-.015c3.142-3.529,7.066-5.338,11.523-6.646l.5-.095a43.588,43.588,0,0,1,7.91-1.425c1.8-.046,3.621.191,5.4.108a40.851,40.851,0,0,1,9.422,2.192,30.974,30.974,0,0,1,8.7,5.078h.66c4.815.026,9.637-.119,14.45.038a7.231,7.231,0,0,1,.462-3.509c1.006-1.419,1.875-5.331,2.359-7.192-.312-.214-.668-.385-1-.569a79.54,79.54,0,0,0,3.929-13.8q1.409-6.671,2.606-13.382C780.051,2592.16,779.438,2585.078,779.355,2583.4Z" transform="translate(0 -2222.956)" fill="#c5d1e7"/>
      <path id="Path_1036961" data-name="Path 1036961" d="M3083.38,3653.969a.848.848,0,0,1,.668-.272,2.3,2.3,0,0,1,.97,1.035c-.022.012-.043.026-.066.037a1.729,1.729,0,0,1-1.235.064C3083.411,3654.525,3083.443,3654.387,3083.38,3653.969Z" transform="translate(-2286.717 -3245.091)" fill="#fff"/>
      <path id="Path_1036962" data-name="Path 1036962" d="M2519.818,3582.93a5.083,5.083,0,0,0,1.4,3.255,2.183,2.183,0,0,0,1.621.591,3.637,3.637,0,0,0,2.526-1.654l.084-.106a8.663,8.663,0,0,1-.251,1.333,6.967,6.967,0,0,1-2.963,3.757,1.523,1.523,0,0,1-1.244.056,2.454,2.454,0,0,1-1.148-1.487,12.017,12.017,0,0,1-.487-2.236A7.223,7.223,0,0,1,2519.818,3582.93Z" transform="translate(-1748.047 -3177.508)" fill="#34355f"/>
      <path id="Path_1036963" data-name="Path 1036963" d="M3048.372,3551.17c-.056-.666-.123-1.338-.13-2.007a3.706,3.706,0,0,1,.8-2.741c1.476,1.9,3.686,5.591,6.272,5.935a4.849,4.849,0,0,0,2.641-.529,6.434,6.434,0,0,1,3.447,2.678c-1.61.041-7.641.452-8.674-.492a9.24,9.24,0,0,1-1.27-1.729,2.306,2.306,0,0,0-.97-1.035.849.849,0,0,0-.668.272,18.9,18.9,0,0,1-.225,2.976.65.65,0,0,1-.575.027c-.695-.74-.427-2.24-.617-3.192Z" transform="translate(-2253.16 -3142.643)" fill="#262748"/>
      <path id="Path_1036964" data-name="Path 1036964" d="M3066.258,3461.636a41.4,41.4,0,0,0,4.76-.149,11.4,11.4,0,0,0-.253,3.738c1.213,1.855,2.219,3.876,4.156,5.093l.08.4a4.849,4.849,0,0,1-2.641.529c-2.586-.344-4.8-4.034-6.272-5.935a1.675,1.675,0,0,0,.091-.192A7.525,7.525,0,0,0,3066.258,3461.636Z" transform="translate(-2270.202 -3061.53)" fill="#fbab45"/>
      <path id="Path_1036965" data-name="Path 1036965" d="M2532.567,3423.09c.744.433,4.122,1.707,4.261,1.829-.618,1.386-.849,5.738-.989,7.449l-.084.106a3.636,3.636,0,0,1-2.526,1.654,2.183,2.183,0,0,1-1.621-.591,5.082,5.082,0,0,1-1.4-3.255C2531.214,3428.864,2532.083,3424.951,2532.567,3423.09Z" transform="translate(-1758.437 -3024.861)" fill="#fbab45"/>
      <path id="Path_1036966" data-name="Path 1036966" d="M1231.309,3495.944c1.8-.046,3.622.191,5.4.108a40.863,40.863,0,0,1,9.422,2.192,30.974,30.974,0,0,1,8.7,5.078c.486.537.984,1.067,1.437,1.633l-44.352-.01-.068.069-.03-.124q-.388.009-.775,0a1.633,1.633,0,0,1,.34-.78c3.142-3.529,7.066-5.338,11.523-6.646l.5-.094A43.615,43.615,0,0,1,1231.309,3495.944Z" transform="translate(-498.631 -3094.431)" fill="#34355f"/>
      <path id="Path_1036968" data-name="Path 1036968" d="M2566.642,2583.4a32.889,32.889,0,0,0,12.7,2.028l-.251,1.864a34.865,34.865,0,0,1-.706,5.5,37.516,37.516,0,0,1-1.64,4.406l-2.793,6.867q-3.832,9.388-7.384,18.886a1.665,1.665,0,0,1-.892.069c-.139-.122-3.518-1.4-4.261-1.829-.312-.214-.668-.385-1-.569a79.556,79.556,0,0,0,3.928-13.8q1.409-6.671,2.606-13.382C2567.338,2592.16,2566.725,2585.078,2566.642,2583.4Z" transform="translate(-1787.287 -2222.956)" fill="#34355f"/>
      <path id="Path_1036970" data-name="Path 1036970" d="M1661,2247.676l5.432-.031-.025,12.717.039,24.876c.03,6.22.2,12.478-.024,18.693-1.78.083-3.6-.154-5.4-.108.054-7.382-.067-14.765.018-22.146q.1-5.942.073-11.885c0-2.2.082-4.444-.085-6.638a38.989,38.989,0,0,0,.011-4.874Z" transform="translate(-928.343 -1902.31)" fill="#515381"/>
    </g>
  </g>
</svg>
