<svg xmlns="http://www.w3.org/2000/svg" width="100" height="100" viewBox="0 0 100 100">
  <g id="img9" transform="translate(-1110.058 -7497.635)">
    <rect id="Rectangle_461168" data-name="Rectangle 461168" width="100" height="100" rx="10" transform="translate(1110.058 7497.635)" fill="#c2afff"/>
    <g id="Group_1191753" data-name="Group 1191753" transform="translate(1128.057 7515.635)">
      <path id="Path_1036971" data-name="Path 1036971" d="M60,45a3,3,0,0,0,3-3V4a3,3,0,0,0-3-3H4A3,3,0,0,0,1,4V42a3,3,0,0,0,3,3H21.6a17.076,17.076,0,0,0,8.176,6.805L26.586,55H23V52a3,3,0,0,0-3-3H8a3,3,0,0,0-3,3v8a3,3,0,0,0,3,3H20a3,3,0,0,0,3-3V57h4a1,1,0,0,0,.707-.293l4.221-4.221A16.713,16.713,0,0,0,44.989,50.4l2.6,2.6-.293.293a1,1,0,0,0,0,1.414l6.757,6.757a5.242,5.242,0,0,0,7.414-7.414L54.71,47.293a1,1,0,0,0-1.414,0l-.3.293L50.414,45ZM21,60a1,1,0,0,1-1,1H8a1,1,0,0,1-1-1V52a1,1,0,0,1,1-1H20a1,1,0,0,1,1,1ZM4,43a1,1,0,0,1-1-1V4A1,1,0,0,1,4,3H60a1,1,0,0,1,1,1V42a1,1,0,0,1-1,1H51.474a16.937,16.937,0,0,0-8.549-22.511L48,15.414V18h2V13a1,1,0,0,0-1-1H44v2h2.586l-5.719,5.719a16.912,16.912,0,0,0-4.295-.69L31.848,11.47A1,1,0,0,0,31,11H27V8a3,3,0,0,0-3-3H12A3,3,0,0,0,9,8v8a3,3,0,0,0,3,3H24a3,3,0,0,0,3-3V13h3.446l3.806,6.09a16.971,16.971,0,0,0-11.107,5.818l-1.4-1.573A1,1,0,0,0,21,23h0a1,1,0,0,0-.737.324l-11,12,1.474,1.352L20.989,25.492l.909,1.024A16.777,16.777,0,0,0,19.281,39H7V12H5V40a1,1,0,0,0,1,1H19.753a16.7,16.7,0,0,0,.773,2ZM25,8v8a1,1,0,0,1-1,1H12a1,1,0,0,1-1-1V8a1,1,0,0,1,1-1H24A1,1,0,0,1,25,8ZM21,36A15,15,0,1,1,36,51,15,15,0,0,1,21,36ZM60.05,55.464a3.243,3.243,0,1,1-4.586,4.586L49.414,54,54,49.414ZM49,51.586l-2.353-2.353a17.089,17.089,0,0,0,2.586-2.586L51.586,49Z" fill="#443d59"/>
      <path id="Path_1036972" data-name="Path 1036972" d="M36,23A13,13,0,1,0,49,36,13,13,0,0,0,36,23Zm-.436,2.022-6.521,6.521-1.86-2.092a10.976,10.976,0,0,1,8.381-4.429ZM36,47a11,11,0,0,1-9.786-6H38V39H25.426a10.83,10.83,0,0,1,.672-7.759l2.154,2.424a1,1,0,0,0,.719.335H29a1,1,0,0,0,.707-.293l8.486-8.486A11,11,0,0,1,36,47Z" fill="#443d59"/>
      <path id="Path_1036973" data-name="Path 1036973" d="M13,9H23v2H13Z" fill="#443d59"/>
      <path id="Path_1036974" data-name="Path 1036974" d="M13,13H23v2H13Z" fill="#443d59"/>
      <path id="Path_1036975" data-name="Path 1036975" d="M9,53H19v2H9Z" fill="#443d59"/>
      <path id="Path_1036976" data-name="Path 1036976" d="M9,57H19v2H9Z" fill="#443d59"/>
    </g>
  </g>
</svg>
